<svg width="48" height="35" viewBox="0 0 48 35" fill="none" xmlns="http://www.w3.org/2000/svg">
<path d="M47.5742 17.8867C47.3993 17.5688 47.1593 17.2914 46.8699 17.0727C46.5805 16.8539 46.2481 16.6987 45.8945 16.6172C43.9854 16.1414 42.0019 16.0419 40.0547 16.3242C40.7969 12.6328 40.2305 9.74218 39.6641 8.02343C39.4604 7.37812 39.023 6.83215 38.4377 6.49253C37.8524 6.15291 37.1614 6.04413 36.5 6.18749C34.5898 6.61046 32.775 7.38538 31.1485 8.47264C29.9202 5.727 28.0273 3.33062 25.6406 1.49999C25.1661 1.14798 24.5909 0.957947 24 0.957947C23.4092 0.957947 22.834 1.14798 22.3594 1.49999C19.9728 3.33062 18.0798 5.727 16.8516 8.47264C15.225 7.38538 13.4102 6.61046 11.5 6.18749C10.8387 6.04413 10.1476 6.15291 9.56234 6.49253C8.97704 6.83215 8.53967 7.37812 8.33595 8.02343C7.76955 9.74218 7.20314 12.6328 7.94533 16.3242C5.99815 16.0419 4.01463 16.1414 2.10548 16.6172C1.75194 16.6987 1.41958 16.8539 1.13014 17.0727C0.840692 17.2914 0.600681 17.5688 0.425798 17.8867C0.243208 18.1992 0.124956 18.5451 0.0779979 18.904C0.0310396 19.2629 0.0563226 19.6276 0.15236 19.9766C0.835954 22.3984 2.90627 26.9883 9.1758 30.6016C15.4453 34.2148 21.0117 34.2344 24 34.2344C26.9883 34.2344 32.5547 34.2344 38.8242 30.6016C45.0938 26.9687 47.1641 22.3984 47.8477 19.9766C47.9437 19.6276 47.969 19.2629 47.922 18.904C47.8751 18.5451 47.7568 18.1992 47.5742 17.8867ZM36.9883 8.47264C37.0838 8.45412 37.1827 8.47187 37.2658 8.52245C37.3489 8.57302 37.4101 8.65276 37.4375 8.74608C38.0039 10.4453 38.5313 13.4726 37.3789 17.3789C37.3566 17.435 37.3434 17.4944 37.3399 17.5547C36.859 19.0519 36.2172 20.4926 35.4258 21.8516C34.0907 24.1447 32.3884 26.2033 30.3867 27.9453C31.832 25.3867 32.9844 21.9297 32.9844 17.4375C32.9961 15.1617 32.6669 12.897 32.0078 10.7187C33.5021 9.64626 35.1953 8.88266 36.9883 8.47264ZM23.7656 3.37499C23.8333 3.32428 23.9155 3.29686 24 3.29686C24.0845 3.29686 24.1668 3.32428 24.2344 3.37499C26.168 4.8203 30.6406 9.05858 30.6406 17.4375C30.6406 26.2851 25.7188 30.4844 24 31.6758C22.3203 30.4844 17.3594 26.2266 17.3594 17.4375C17.3594 9.05858 21.832 4.8203 23.7656 3.37499ZM10.5625 8.74608C10.5899 8.65276 10.6511 8.57302 10.7342 8.52245C10.8173 8.47187 10.9163 8.45412 11.0117 8.47264C12.8047 8.88266 14.4979 9.64626 15.9922 10.7187C15.3331 12.897 15.0039 15.1617 15.0156 17.4375C15.0156 21.9297 16.168 25.3867 17.6133 27.9453C15.6116 26.2033 13.9093 24.1447 12.5742 21.8516C11.7784 20.4949 11.1365 19.0537 10.6602 17.5547C10.6566 17.4944 10.6434 17.435 10.6211 17.3789C9.46877 13.4726 9.99611 10.4453 10.5625 8.74608ZM2.41798 19.3516C2.3915 19.2545 2.39837 19.1513 2.43752 19.0586C2.46261 19.0149 2.49633 18.9768 2.53662 18.9466C2.57692 18.9164 2.62294 18.8947 2.67189 18.8828C3.96095 18.5508 5.9922 18.2969 8.60939 18.8047C9.10833 20.2732 9.75624 21.6868 10.543 23.0234C12.4881 26.3859 15.1485 29.2797 18.336 31.5C15.5211 31.0134 12.8159 30.0279 10.3477 28.5898C4.78127 25.3672 2.98439 21.4219 2.41798 19.3516ZM45.582 19.3516C45.0156 21.4219 43.2188 25.3672 37.6524 28.5898C35.1841 30.0279 32.4789 31.0134 29.6641 31.5C32.8515 29.2797 35.512 26.3859 37.457 23.0234C38.2438 21.6868 38.8917 20.2732 39.3906 18.8047C42.0078 18.2969 44.0391 18.5508 45.3281 18.8828C45.3771 18.8947 45.4231 18.9164 45.4634 18.9466C45.5037 18.9768 45.5374 19.0149 45.5625 19.0586C45.6017 19.1513 45.6085 19.2545 45.582 19.3516Z" fill="#736451"/>
</svg>
