<svg width="28" height="28" viewBox="0 0 28 28" fill="none" xmlns="http://www.w3.org/2000/svg">
<g clip-path="url(#clip0_1_32)">
<path fill-rule="evenodd" clip-rule="evenodd" d="M25.9945 19.5055C26.076 19.5868 26.1406 19.6833 26.1847 19.7896C26.2289 19.8959 26.2516 20.0099 26.2516 20.125C26.2516 20.2401 26.2289 20.354 26.1847 20.4604C26.1406 20.5667 26.076 20.6632 25.9945 20.7445L18.9945 27.7445C18.8302 27.9088 18.6074 28.0011 18.375 28.0011C18.1426 28.0011 17.9198 27.9088 17.7555 27.7445C17.5912 27.5802 17.4989 27.3574 17.4989 27.125C17.4989 26.8926 17.5912 26.6698 17.7555 26.5055L23.2628 21L6.125 21C4.96468 21 3.85188 20.5391 3.03141 19.7186C2.21094 18.8981 1.75 17.7853 1.75 16.625L1.75 2.625C1.75 2.39293 1.84219 2.17037 2.00628 2.00628C2.17037 1.84218 2.39293 1.75 2.625 1.75C2.85706 1.75 3.07962 1.84218 3.24372 2.00628C3.40781 2.17037 3.5 2.39293 3.5 2.625L3.5 16.625C3.5 17.3212 3.77656 17.9889 4.26884 18.4811C4.76113 18.9734 5.42881 19.25 6.125 19.25L23.2628 19.25L17.7555 13.7445C17.5912 13.5802 17.4989 13.3574 17.4989 13.125C17.4989 12.8926 17.5912 12.6698 17.7555 12.5055C17.9198 12.3412 18.1426 12.2489 18.375 12.2489C18.6074 12.2489 18.8302 12.3412 18.9945 12.5055L25.9945 19.5055Z" fill="#736451"/>
</g>
<defs>
<clipPath id="clip0_1_32">
<rect width="28" height="28" fill="white" transform="translate(0 28) rotate(-90)"/>
</clipPath>
</defs>
</svg>
