<svg width="34" height="27" viewBox="0 0 34 27" fill="none" xmlns="http://www.w3.org/2000/svg">
<path d="M33.4794 3.19976C32.2617 3.73934 30.9535 4.10393 29.5783 4.26872C30.9973 3.41967 32.0589 2.08336 32.565 0.509137C31.2319 1.301 29.7728 1.85838 28.2512 2.15705C27.2281 1.06456 25.8728 0.340445 24.3959 0.0971194C22.919 -0.146207 21.4031 0.104874 20.0835 0.81138C18.7639 1.51789 17.7145 2.64029 17.0981 4.00433C16.4818 5.36837 16.3331 6.89773 16.675 8.35497C13.9737 8.21934 11.3311 7.51723 8.91874 6.29421C6.50636 5.07118 4.3781 3.35458 2.67208 1.2558C2.08875 2.26205 1.75333 3.42872 1.75333 4.67122C1.75268 5.78975 2.02813 6.89116 2.55524 7.8777C3.08234 8.86425 3.84482 9.70544 4.775 10.3266C3.69623 10.2923 2.64127 10.0008 1.69791 9.47643V9.56393C1.6978 11.1327 2.24046 12.6532 3.2338 13.8675C4.22715 15.0817 5.61 15.9149 7.14771 16.2256C6.14697 16.4964 5.09778 16.5363 4.07937 16.3423C4.51322 17.6921 5.35832 18.8725 6.49637 19.7182C7.63441 20.5639 9.00842 21.0325 10.426 21.0585C8.01955 22.9477 5.04754 23.9724 1.98812 23.9679C1.44618 23.968 0.904691 23.9364 0.366455 23.8731C3.47194 25.8698 7.08695 26.9295 10.779 26.9254C23.2769 26.9254 30.1092 16.5741 30.1092 7.59664C30.1092 7.30497 30.1019 7.01039 30.0887 6.71872C31.4177 5.75764 32.5649 4.56753 33.4765 3.20414L33.4794 3.19976Z" fill="#736451"/>
</svg>
